<?xml version="1.0" encoding="UTF-8"?>
<!DOCTYPE svg PUBLIC "-//W3C//DTD SVG 1.1//EN" "http://www.w3.org/Graphics/SVG/1.1/DTD/svg11.dtd">
<!-- Creator: CorelDRAW 2019 (64-Bit) -->
<svg xmlns="http://www.w3.org/2000/svg" xml:space="preserve" width="155.241mm" height="28.2258mm" version="1.1" style="shape-rendering:geometricPrecision; text-rendering:geometricPrecision; image-rendering:optimizeQuality; fill-rule:evenodd; clip-rule:evenodd"
viewBox="0 0 917.03 166.73"
 xmlns:xlink="http://www.w3.org/1999/xlink">
 <defs>
  <style type="text/css">
   <![CDATA[
    .str1 {stroke:#2B2A29;stroke-width:1.18;stroke-miterlimit:22.9256}
    .str0 {stroke:#2B2A29;stroke-width:0.45;stroke-miterlimit:22.9256}
    .fil1 {fill:#FEFEFE}
    .fil4 {fill:#FEFEFE}
    .fil13 {fill:#E31E24}
    .fil0 {fill:#1F1B20}
    .fil8 {fill:#1F1B20}
    .fil12 {fill:#2C2119;fill-rule:nonzero}
    .fil3 {fill:#1F1B20;fill-rule:nonzero}
    .fil6 {fill:url(#id0)}
    .fil10 {fill:url(#id1)}
    .fil5 {fill:url(#id2)}
    .fil9 {fill:url(#id3)}
    .fil7 {fill:url(#id4)}
    .fil2 {fill:url(#id5)}
    .fil14 {fill:url(#id6)}
    .fil11 {fill:url(#id7)}
   ]]>
  </style>
  <linearGradient id="id0" gradientUnits="userSpaceOnUse" x1="450.21" y1="138.54" x2="465.7" y2="51.69">
   <stop offset="0" style="stop-opacity:1; stop-color:#8F908E"/>
   <stop offset="1" style="stop-opacity:1; stop-color:#FEFEFE"/>
  </linearGradient>
  <linearGradient id="id1" gradientUnits="userSpaceOnUse" xlink:href="#id0" x1="807.94" y1="139.01" x2="821.66" y2="51.55">
  </linearGradient>
  <linearGradient id="id2" gradientUnits="userSpaceOnUse" x1="335.51" y1="138.39" x2="350.58" y2="51.05">
   <stop offset="0" style="stop-opacity:1; stop-color:#8F908E"/>
   <stop offset="1" style="stop-opacity:1; stop-color:#E1E3E3"/>
  </linearGradient>
  <linearGradient id="id3" gradientUnits="userSpaceOnUse" xlink:href="#id0" x1="686.61" y1="138.35" x2="701.98" y2="52.41">
  </linearGradient>
  <linearGradient id="id4" gradientUnits="userSpaceOnUse" xlink:href="#id0" x1="569.73" y1="138.37" x2="584.29" y2="52.19">
  </linearGradient>
  <linearGradient id="id5" gradientUnits="userSpaceOnUse" x1="62.24" y1="147.43" x2="81.33" y2="42.98">
   <stop offset="0" style="stop-opacity:1; stop-color:#8F908E"/>
   <stop offset="1" style="stop-opacity:1; stop-color:white"/>
  </linearGradient>
  <linearGradient id="id6" gradientUnits="userSpaceOnUse" xlink:href="#id5" x1="207.69" y1="146.57" x2="217.64" y2="74.64">
  </linearGradient>
  <linearGradient id="id7" gradientUnits="userSpaceOnUse" xlink:href="#id0" x1="203.64" y1="108.79" x2="210.01" y2="82.09">
  </linearGradient>
 </defs>
 <g id="Capa_x0020_1">
  <metadata id="CorelCorpID_0Corel-Layer"/>
  <g id="_1901324201056">
   <path class="fil0" d="M-0 31.28l0 128.31 68.31 -0.64 0.32 -22.02 33.83 0.32c9.15,-7.45 18.3,-14.9 27.45,-22.34 19.41,52.51 92.73,73.47 140.12,22.98l0.64 21.39 338.34 -0.32 27.13 -22.34 28.41 22.66 138.53 -0.96 11.49 -11.49 11.17 12.45 88.73 -0.64 -54.26 -62.24 56.82 -65.11 -90.97 -0.96 -10.85 13.41 -11.81 -13.09 -139.8 0.32 -26.49 23.62 -27.45 -23.62 -109.48 0.64 1.6 -31.6 -81.71 12.77 -0.64 18.83 -147.78 -0.96 -0.32 23.62c-38.6,-42.97 -99.42,-39.81 -134.06,6.06l-34.15 -29.05 -103.1 0z"/>
   <polygon class="fil1 str0" points="431.9,23.57 489.36,14.42 488.6,44.83 431.39,51.08 "/>
   <polygon class="fil2" points="57.73,125.26 57.41,147.03 12.3,148.07 13.07,43.09 98.18,42.35 131.26,69.28 131.26,97 100.41,125.54 "/>
   <path class="fil3" d="M58.98 126.54l-0.31 21.74 -47.64 1.1c0.27,-35.85 0.53,-71.7 0.79,-107.54 28.94,-0.25 57.88,-0.49 86.82,-0.76 11.3,9.21 22.61,18.41 33.92,27.61l0 28.88c-10.54,9.76 -21.08,19.52 -31.64,29.26l-41.93 -0.28zm-2.82 19.25l0.32 -21.81 43.45 0.29 30.07 -27.81 0 -26.58 -32.26 -26.26 -83.39 0.73 -0.75 102.42 42.57 -0.98z"/>
   <path class="fil3" d="M19.79 139.16l0.65 -88.71c25.04,-0.22 50.08,-0.42 75.12,-0.65 9.42,7.68 18.85,15.35 28.28,23.02l0 20.94c-8.77,8.12 -17.54,16.24 -26.32,24.35l-47.12 -0.31 -0.32 21.99 -30.3 0.7 0.01 -1.31zm3.17 -86.19l-0.62 84.89 25.23 -0.58 0.32 -22.06 48.64 0.32 24.75 -22.89 0 -18.64 -26.62 -21.67 -71.7 0.62z"/>
   <polygon class="fil4" points="328.61,65.24 351.06,42.78 416.15,42.52 361.7,93.32 417.47,147.2 353.62,147.73 328.69,121.63 328.43,146.9 281.45,146.9 283.43,42.57 328.86,42.56 "/>
   <polygon class="fil5" points="292.06,52.35 319.83,51.71 319.51,80.12 325.73,80.75 354.86,51.63 393.48,50.67 348.79,93.28 395.55,138.45 357.41,138.77 326.77,106.69 319.91,106.85 319.59,137.97 290.54,137.97 "/>
   <path class="fil3" d="M292.03 51.07l29.08 -0.67 -0.32 28.56 4.46 0.46 29.06 -29.06c14.14,-0.35 28.29,-0.7 42.43,-1.05l-46.11 43.97 48.04 46.41 -41.81 0.35 -30.63 -32.07 -5.07 0.12 -0.32 31.15 -31.6 0c0.53,-29.38 1.05,-58.76 1.56,-88.14l1.23 -0.03zm26.51 1.94l-25.23 0.58 -1.47 83.1 26.49 0 0.32 -31.09 8.66 -0.2 30.65 32.09 34.48 -0.29 -45.48 -43.93 43.26 -41.25 -34.81 0.86 -29.2 29.2 -7.99 -0.82 0.32 -28.25z"/>
   <polygon class="fil1" points="403.75,66.65 431.27,42.83 526.03,42.32 495.79,83.49 489.84,83.51 489.74,106.81 495.19,106.81 525.18,147.23 432.08,147.84 398.52,120.25 398.82,68.63 "/>
   <polygon class="fil6" points="408.4,74.29 434.57,51.63 508.54,51.23 491.31,74.69 439.92,74.93 439.92,85.46 481.01,85.46 480.93,104.69 440,105.09 440,115.63 490.75,115.63 507.75,138.53 435.21,139.01 407.36,116.1 407.6,74.61 "/>
   <path class="fil3" d="M407.73 73.19l26.37 -22.83c25.66,-0.13 51.32,-0.27 76.97,-0.41l-19.11 26.01 -50.76 0.24 0 7.99 41.1 0 -0.09 21.77 -40.93 0.4 0 8 50.11 0 18.88 25.43 -75.5 0.5 -28.67 -23.58c0.09,-14.32 0.17,-28.64 0.25,-42.96l1.39 -0.56zm27.32 -20.29l-25.98 22.5 -0.2 0.08 -0.23 40.03 27.03 22.22 69.57 -0.46 -15.12 -20.37 -51.39 0 0 -13.07 40.95 -0.4 0.07 -16.69 -41.1 0 0 -13.08 52.02 -0.24 15.36 -20.91 -70.97 0.38z"/>
   <polygon class="fil1" points="514.89,43.11 606.08,42.55 638.78,70.19 639.16,120.33 606.25,147.98 514.89,147.98 "/>
   <polygon class="fil7" points="524.18,52.35 602.7,51.87 629.51,74.53 629.83,116.03 602.86,138.69 524.18,138.69 "/>
   <path class="fil3" d="M524.18 51.08l78.99 -0.48 27.61 23.34c0.12,14.23 0.22,28.45 0.33,42.68 -9.26,7.79 -18.53,15.57 -27.79,23.35l-80.41 0 0 -88.88 1.27 -0.01zm78.06 2.07l-76.78 0.47 0 83.8 76.95 0 26.15 -21.97 -0.31 -40.31 -26.01 -21.99z"/>
   <rect class="fil1" x="551.95" y="74.37" width="49.79" height="41.65"/>
   <path class="fil3" d="M551.95 73.09l51.07 0 0 44.21 -52.35 0 0 -44.21 1.28 0zm48.52 2.55l-47.24 0 0 39.1 47.24 0 0 -39.1z"/>
   <rect class="fil8" x="561.85" y="84.27" width="30.96" height="22.66"/>
   <path class="fil3" d="M561.85 82.99l32.24 0 0 25.22 -33.52 0 0 -25.22 1.28 0zm29.68 2.55l-28.41 0 0 20.11 28.41 0 0 -20.11z"/>
   <path class="fil3" d="M513.33 61.54l-16.25 23.52 -6.41 0 0 20.78 6.26 0.15 16.4 23.67 0 -68.12zm-17.58 20.97l20.13 -29.14 0 84.45 -20.31 -29.31 -7.46 -0.17 0 -25.82 7.63 0z"/>
   <polygon class="fil1" points="763.07,42.56 733.02,84.74 726.82,84.75 726.91,105.89 732.59,105.92 762.53,147.8 668.27,148.53 634.65,120.79 634.75,69.73 667.19,42.46 "/>
   <polygon class="fil9" points="644.43,74.25 670.73,52.15 741.39,52.07 744.24,51.95 727.98,75.05 676.59,75.13 676.43,85.19 717.13,85.35 717.21,105.06 676.43,105.22 676.59,115.27 727.58,115.59 743.78,138.25 671.72,138.81 644.35,116.23 "/>
   <path class="fil3" d="M643.62 73.28l26.65 -22.4 71.07 -0.08 5.43 -0.23c-6.04,8.58 -12.08,17.17 -18.12,25.75l-50.8 0.08 -0.12 7.52 40.67 0.16 0.09 22.24 -40.76 0.16 0.12 7.52 50.4 0.32 18 25.18c-24.99,0.2 -49.98,0.4 -74.97,0.58 -9.4,-7.75 -18.8,-15.5 -28.19,-23.26 0.03,-14.39 0.06,-28.78 0.08,-43.17l0.45 -0.38zm27.57 -19.86l-25.49 21.42 -0.08 40.78 26.55 21.91 69.14 -0.54 -14.4 -20.14 -51.58 -0.32 -0.2 -12.59 40.79 -0.16 -0.07 -17.18 -40.72 -0.16 0.2 -12.59 51.98 -0.08 14.4 -20.45c-22.71,0.96 -47.57,0.07 -70.52,0.09z"/>
   <path class="fil3" d="M726.57 82.72l6.02 0.14 18.24 -26.12 34.48 38.02c-11.46,12.9 -22.92,25.79 -34.38,38.68l-18.34 -25.82 -7.49 0 0.18 -24.92 1.29 0.03zm6.64 2.7l-5.41 -0.13 -0.14 19.76 6.24 0 17.25 24.29 30.74 -34.58 -30.8 -33.96 -17.19 24.63 -0.68 -0.02z"/>
   <polygon class="fil1" points="739.82,95.28 752.07,112.53 767.8,94.84 752.16,77.6 "/>
   <path class="fil3" d="M741.37 95.27l10.81 15.22 13.9 -15.64 -13.8 -15.21 -10.92 15.64zm9.66 18l-12.77 -17.98 13.77 -19.72 17.48 19.27 -17.55 19.74 -0.93 -1.31z"/>
   <polygon class="fil1" points="814.69,60.77 831.36,42.42 892.16,42.69 845.46,95.34 890.34,146.9 831.12,148.21 814.67,130.21 799.12,147.8 738.13,147.8 783.53,95.47 737.32,42.53 798.04,42.57 "/>
   <polygon class="fil10" points="794.13,51.55 814.72,74.05 835.3,51.39 872.33,51.55 833.55,95.28 871.05,138.37 834.99,139.17 814.56,116.83 795.09,138.85 757.74,138.85 795.41,95.44 757.26,51.87 "/>
   <path class="fil3" d="M795.07 50.69l19.64 21.47 20.03 -22.05c13.47,0.06 26.94,0.12 40.41,0.17l-39.9 44.99 38.56 44.3c-13.12,0.29 -26.24,0.59 -39.36,0.87l-19.86 -21.73 -18.92 21.4 -40.71 0 38.77 -44.68 -39.24 -44.82c13.4,-0.12 26.8,-0.23 40.2,-0.35l0.38 0.42zm18.71 24.22l-20.2 -22.08 -33.53 0.29 37.05 42.32 -36.56 42.14 33.98 0 20.02 -22.65 20.99 22.96 32.77 -0.72 -36.45 -41.88 37.66 -42.46 -33.64 -0.15 -21.15 23.28 -0.94 -1.03z"/>
   <ellipse class="fil1" cx="206.83" cy="95.44" rx="68.23" ry="60.09"/>
   <path class="fil3" d="M206.83 34.07c19.16,0 36.52,6.85 49.09,17.92 12.62,11.11 20.42,26.47 20.42,43.45 0,16.98 -7.8,32.34 -20.42,43.45 -12.57,11.07 -29.93,17.92 -49.09,17.92 -19.16,0 -36.52,-6.85 -49.09,-17.92 -12.62,-11.11 -20.42,-26.47 -20.42,-43.45 0,-16.98 7.8,-32.34 20.42,-43.45 12.57,-11.07 29.93,-17.92 49.09,-17.92zm47.4 19.83c-12.12,-10.68 -28.88,-17.28 -47.4,-17.28 -18.52,0 -35.28,6.6 -47.4,17.28 -12.08,10.64 -19.55,25.32 -19.55,41.53 0,16.21 7.47,30.89 19.55,41.53 12.12,10.68 28.88,17.28 47.4,17.28 18.52,0 35.28,-6.6 47.4,-17.28 12.08,-10.64 19.55,-25.32 19.55,-41.53 0,-16.21 -7.47,-30.9 -19.55,-41.53z"/>
   <ellipse class="fil11" cx="206.83" cy="95.44" rx="15.8" ry="13.63"/>
   <path class="fil3" d="M206.83 80.54c4.68,0 8.92,1.65 12.01,4.31 3.13,2.7 5.07,6.45 5.07,10.6 0,4.15 -1.94,7.9 -5.07,10.6 -3.08,2.66 -7.33,4.31 -12.01,4.31 -4.68,0 -8.92,-1.65 -12.01,-4.31 -3.13,-2.7 -5.07,-6.45 -5.07,-10.6 0,-4.15 1.94,-7.9 5.07,-10.6 3.08,-2.66 7.33,-4.31 12.01,-4.31zm10.34 6.23c-2.63,-2.27 -6.29,-3.68 -10.34,-3.68 -4.05,0 -7.71,1.41 -10.34,3.68 -2.58,2.23 -4.18,5.3 -4.18,8.67 0,3.38 1.6,6.44 4.18,8.67 2.63,2.27 6.29,3.68 10.34,3.68 4.05,0 7.71,-1.41 10.34,-3.68 2.58,-2.23 4.18,-5.3 4.18,-8.67 0,-3.38 -1.6,-6.44 -4.18,-8.67z"/>
   <path class="fil3" d="M440.07 29.59l41.85 -6.66 -0.39 15.41 -42.76 4.67 0.25 -13.24 1.05 -0.17zm39.23 -3.67l-37.78 6.02 -0.15 8.22 37.67 -4.11 0.25 -10.12z"/>
   <path class="fil12" d="M48.03 71.18l48.2 0 0 25.69 -49.47 0 0 -25.69 1.28 0zm45.64 2.55l-44.37 0 0 20.59 44.37 0 0 -20.59z"/>
   <rect class="fil8" x="57.92" y="82.35" width="26.65" height="4.15"/>
   <path class="fil3" d="M57.92 81.08l27.93 0 0 6.7 -29.21 0 0 -6.7 1.28 0zm25.38 2.55l-24.1 0 0 1.6 24.1 0 0 -1.6z"/>
   <path class="fil13" d="M206.83 44.37c-32.7,0 -59.21,22.87 -59.21,51.07 0,6.94 1.6,13.55 4.51,19.58 7.59,-3.87 16.36,-8.25 25.57,-12.81 -0.67,-2.16 -1.03,-4.43 -1.03,-6.77 0,-14.37 13.5,-26.02 30.16,-26.02 8.52,0 16.21,3.05 21.7,7.94 10.78,-5.22 19.93,-9.62 25.79,-12.44 -10.79,-12.48 -28.05,-20.56 -47.49,-20.56z"/>
   <path class="fil3" d="M206.83 45.65c-16.04,0 -30.55,5.6 -41.03,14.64 -10.44,9.01 -16.9,21.43 -16.9,35.15 0,3.33 0.38,6.58 1.1,9.72 0.64,2.8 1.56,5.52 2.73,8.13 3.02,-1.54 6.58,-3.33 10.58,-5.33 4.4,-2.2 8.7,-4.35 12.88,-6.42 -0.22,-0.82 -0.39,-1.65 -0.52,-2.49 -0.18,-1.18 -0.27,-2.39 -0.27,-3.61 0,-7.57 3.55,-14.42 9.28,-19.36 5.68,-4.9 13.52,-7.93 22.16,-7.93 4.33,0 8.46,0.76 12.21,2.14 3.62,1.32 6.9,3.23 9.68,5.57 5.1,-2.47 9.82,-4.75 13.99,-6.75l9.53 -4.58c-5.22,-5.65 -11.83,-10.31 -19.39,-13.58 -7.82,-3.38 -16.66,-5.29 -26.02,-5.29zm-42.7 12.72c10.94,-9.44 26.04,-15.27 42.7,-15.27 9.71,0 18.89,1.98 27.03,5.51 8.47,3.67 15.8,9 21.42,15.5l1.09 1.26 -12.55 6.04c-4.37,2.1 -9.35,4.51 -14.74,7.12l-0.76 0.37 -0.64 -0.57c-2.67,-2.38 -5.9,-4.31 -9.51,-5.64 -3.48,-1.27 -7.31,-1.98 -11.34,-1.98 -8.02,0 -15.26,2.79 -20.5,7.31 -5.18,4.47 -8.39,10.64 -8.39,17.43 0,1.1 0.08,2.18 0.24,3.23 0.16,1.08 0.41,2.14 0.73,3.16l0.32 1.04 -0.98 0.48c-5.04,2.5 -9.71,4.82 -13.82,6.88 -3.74,1.88 -7.66,3.85 -11.73,5.93l-1.16 0.59 -0.57 -1.17c-1.51,-3.14 -2.68,-6.43 -3.47,-9.85 -0.77,-3.33 -1.17,-6.77 -1.17,-10.29 0,-14.49 6.8,-27.6 17.79,-37.07z"/>
   <path class="fil14" d="M236.99 95.44c0,14.37 -13.5,26.02 -30.16,26.02 -8.75,0 -16.63,-3.21 -22.14,-8.34l-25.39 12.79c10.79,12.51 28.06,20.61 47.53,20.61 32.7,0 59.21,-22.87 59.21,-51.07 0,-7.38 -1.82,-14.4 -5.08,-20.74l-25.39 12.79c0.93,2.51 1.43,5.18 1.43,7.95z"/>
   <path class="fil3" d="M238.27 95.44c0,7.57 -3.55,14.41 -9.28,19.36 -5.68,4.9 -13.52,7.93 -22.16,7.93 -4.44,0 -8.68,-0.8 -12.52,-2.25 -3.7,-1.39 -7.03,-3.39 -9.83,-5.84l-23.13 11.65c5.22,5.68 11.84,10.35 19.42,13.64 7.82,3.39 16.67,5.3 26.05,5.3 16.04,0 30.55,-5.6 41.03,-14.64 10.44,-9 16.9,-21.43 16.9,-35.15 0,-3.55 -0.43,-7 -1.24,-10.32 -0.74,-3.01 -1.79,-5.92 -3.14,-8.7l-23.26 11.72c0.32,1 0.57,2.02 0.76,3.05 0.25,1.4 0.38,2.83 0.38,4.25zm-10.94 17.43c5.18,-4.47 8.39,-10.64 8.39,-17.43 0,-1.31 -0.11,-2.58 -0.33,-3.81 -0.23,-1.27 -0.57,-2.5 -1.01,-3.7l-0.4 -1.07 27.54 -13.87 0.58 1.12c1.7,3.3 3.02,6.78 3.91,10.4 0.87,3.53 1.32,7.19 1.32,10.92 0,14.49 -6.8,27.6 -17.79,37.07 -10.94,9.44 -26.04,15.27 -42.7,15.27 -9.72,0 -18.91,-1.99 -27.06,-5.52 -8.47,-3.67 -15.81,-9.02 -21.43,-15.53l-1.07 -1.24 27.64 -13.92 0.65 0.6c2.69,2.5 5.97,4.53 9.65,5.92 3.55,1.34 7.48,2.08 11.62,2.08 8.02,0 15.26,-2.79 20.5,-7.31z"/>
   <path class="fil1 str1" d="M93.67 94.32l0 -20.59 -44.37 0 0 20.59 44.37 0zm-35.75 -13.25l27.93 0 0 6.7 -29.21 0 0 -6.7 1.28 0z"/>
  </g>
 </g>
</svg>
